# xmcd
#
# Track frame offsets:
#	150
#	14402
#	28614
#	46075
#
# Disc length: 800 seconds
#
# Revision: 3
# Processed by: cddbd v1.4PL0 Copyright (c) Steve Scherf et al.
# Submitted via: EasyCDDAExtractor 5.0.7
#
DISCID=25031e04
DTITLE=Steffen Jürgens - Liebe auf den ersten Blick
DYEAR=2003
DGENRE=Fox
TTITLE0=Radio Version
TTITLE1=Rock Version
TTITLE2=DJ-Remix 135bpm
TTITLE3=Karaoke Version
EXTD=YEAR: 2003 ID3G: 121
EXTT0=
EXTT1=
EXTT2=
EXTT3=
PLAYORDER=
